<?xml version="1.0" encoding="UTF-8"?>
<!DOCTYPE svg PUBLIC "-//W3C//DTD SVG 1.1//EN" "http://www.w3.org/Graphics/SVG/1.1/DTD/svg11.dtd">
<!-- Creator: CorelDRAW -->
<svg xmlns="http://www.w3.org/2000/svg" xml:space="preserve" width="6.82666in" height="6.82666in" style="shape-rendering:geometricPrecision; text-rendering:geometricPrecision; image-rendering:optimizeQuality; fill-rule:evenodd; clip-rule:evenodd"
viewBox="0 0 6.82666 6.82666"
 xmlns:xlink="http://www.w3.org/1999/xlink">
 <defs>
  <style type="text/css">
   <![CDATA[
    .fil2 {fill:none}
    .fil1 {fill:#FFA000}
    .fil0 {fill:#FFB300}
   ]]>
  </style>
 </defs>
 <g id="Layer_x0020_1">
  <metadata id="CorelCorpID_0Corel-Layer"/>
  <g id="_311370576">
   <g>
    <path id="_311378640" class="fil0" d="M3.48652 1.41967c-0.146394,-0.154752 -0.224882,-0.154752 -0.150071,0 -0.074811,-0.154752 0.00367717,-0.450965 0.150071,-0.566335 -0.146394,0.11537 -0.0678937,0.411583 0.150067,0.566335 -0.217961,-0.154752 -0.296461,-0.154752 -0.150067,0z"/>
    <path id="_311378376" class="fil0" d="M1.91246 4.9142c0.399524,0.399531 0.935768,0.62165 1.50087,0.62165 0.565098,0 1.10135,-0.222118 1.50087,-0.62165 0.399535,-0.399524 0.621654,-0.935772 0.621654,-1.50087 0,-0.565098 -0.222118,-1.10135 -0.621654,-1.50087 -0.39952,-0.399535 -0.935768,-0.621654 -1.50087,-0.621654 -0.565098,0 -1.10134,0.222118 -1.50087,0.621654 -0.399531,0.39952 -0.62165,0.935768 -0.62165,1.50087 0,0.565094 0.222118,1.10134 0.62165,1.50087z"/>
    <path id="_311378160" class="fil0" d="M4.00002 1.50654c-0.10135,-0.18737 -0.177165,-0.207685 -0.144957,-0.0388425 -0.0322087,-0.168843 0.120272,-0.434646 0.291535,-0.508193 -0.171264,0.0735472 -0.172106,0.379984 -0.00162205,0.585878 -0.170484,-0.205894 -0.246307,-0.226213 -0.144957,-0.0388425z"/>
    <path id="_311377968" class="fil0" d="M4.47354 1.72336c-0.0494016,-0.207217 -0.117374,-0.246461 -0.129965,-0.0750354 0.0125906,-0.171425 0.228669,-0.388709 0.413134,-0.415425 -0.184465,0.0267165 -0.264591,0.322492 -0.153205,0.565492 -0.111386,-0.243 -0.179366,-0.282248 -0.129965,-0.0750315z"/>
    <path id="_311376480" class="fil0" d="M4.87481 2.05534c0.00591339,-0.212941 -0.0495866,-0.268441 -0.106114,-0.106114 0.0565276,-0.162327 0.32148,-0.31628 0.506575,-0.294343 -0.185094,-0.021937 -0.339039,0.243024 -0.294346,0.506575 -0.0446929,-0.263551 -0.100201,-0.319059 -0.106114,-0.106118z"/>
    <path id="_311375616" class="fil0" d="M5.17649 2.47987c0.0608228,-0.204154 0.0215787,-0.272126 -0.0750354,-0.129961 0.0966142,-0.142165 0.392386,-0.222299 0.565492,-0.153205 -0.173106,-0.0690945 -0.390386,0.146992 -0.415425,0.41313 0.0250394,-0.266138 -0.0142087,-0.334118 -0.0750315,-0.129965z"/>
    <path id="_311375832" class="fil0" d="M5.35801 2.96802c0.111591,-0.181457 0.0912795,-0.257268 -0.0388386,-0.144953 0.130118,-0.112315 0.436551,-0.113169 0.585878,-0.00162598 -0.149327,-0.111543 -0.41513,0.0409449 -0.508197,0.291535 0.0930669,-0.250591 0.072748,-0.326413 -0.0388425,-0.144957z"/>
    <path id="_311374920" class="fil0" d="M5.407 3.48651c0.154756,-0.14639 0.154756,-0.224878 0,-0.150067 0.154756,-0.074811 0.450965,0.00367717 0.566335,0.150067 -0.11537,-0.14639 -0.411579,-0.0678937 -0.566335,0.150071 0.154756,-0.217965 0.154756,-0.296461 0,-0.150071z"/>
    <path id="_311374584" class="fil0" d="M5.32013 4.00002c0.187366,-0.10135 0.207681,-0.177165 0.0388386,-0.144957 0.168843,-0.0322087 0.43465,0.120272 0.508197,0.291535 -0.0735472,-0.171264 -0.379984,-0.172106 -0.585878,-0.00162598 0.205894,-0.17048 0.226209,-0.246303 0.0388425,-0.144953z"/>
    <path id="_311375160" class="fil0" d="M5.10331 4.47354c0.207217,-0.0494055 0.246461,-0.117378 0.0750354,-0.129965 0.171425,0.0125866 0.388709,0.228665 0.415425,0.41313 -0.0267165,-0.184465 -0.322496,-0.264587 -0.565496,-0.153201 0.243,-0.111386 0.282252,-0.17937 0.0750354,-0.129965z"/>
    <path id="_311374776" class="fil0" d="M4.77132 4.87481c0.212941,0.00591339 0.268441,-0.0495866 0.106114,-0.106114 0.162327,0.0565276 0.316283,0.32148 0.294346,0.506571 0.021937,-0.185091 -0.243024,-0.339039 -0.506575,-0.294343 0.263551,-0.0446969 0.319055,-0.100201 0.106114,-0.106114z"/>
    <path id="_311375304" class="fil0" d="M4.34679 5.17649c0.204157,0.0608268 0.27213,0.0215827 0.129965,-0.0750354 0.142165,0.0966181 0.222299,0.392386 0.153201,0.565496 0.0690984,-0.17311 -0.146992,-0.390386 -0.41313,-0.415425 0.266138,0.0250394 0.334122,-0.0142087 0.129965,-0.0750354z"/>
    <path id="_311374344" class="fil0" d="M3.85865 5.35801c0.181457,0.111591 0.257272,0.0912756 0.144957,-0.0388425 0.112315,0.130118 0.113165,0.436551 0.00162205,0.585878 0.111543,-0.149327 -0.0409449,-0.41513 -0.291535,-0.508197 0.250591,0.0930669 0.326413,0.072752 0.144957,-0.0388386z"/>
    <path id="_311374104" class="fil0" d="M3.34015 5.407c0.146394,0.154752 0.224878,0.154752 0.150067,0 0.074811,0.154752 -0.00367323,0.450965 -0.150067,0.566335 0.146394,-0.11537 0.0678937,-0.411583 -0.150071,-0.566335 0.217965,0.154752 0.296465,0.154752 0.150071,0z"/>
    <path id="_311374224" class="fil0" d="M2.82665 5.32013c0.101354,0.18737 0.177165,0.207685 0.144957,0.0388425 0.0322087,0.168843 -0.120268,0.434646 -0.291531,0.508193 0.171264,-0.0735472 0.172102,-0.379984 0.00162205,-0.585874 0.17048,0.20589 0.246307,0.226209 0.144953,0.0388386z"/>
    <path id="_311373912" class="fil0" d="M2.35312 5.10331c0.0494055,0.207217 0.117378,0.246461 0.129965,0.0750354 -0.0125866,0.171425 -0.228665,0.388709 -0.41313,0.415425 0.184465,-0.0267165 0.264587,-0.322492 0.153205,-0.565492 0.111382,0.243 0.179366,0.282248 0.129961,0.0750315z"/>
    <path id="_311373072" class="fil0" d="M1.95185 4.77132c-0.00590945,0.212941 0.0495866,0.268441 0.106114,0.106114 -0.0565276,0.162327 -0.32148,0.31628 -0.506571,0.294343 0.185091,0.021937 0.339039,-0.243024 0.294343,-0.506571 0.0446969,0.263547 0.100205,0.319055 0.106114,0.106114z"/>
    <path id="_311373480" class="fil0" d="M1.65018 4.34679c-0.0608228,0.204154 -0.0215787,0.272126 0.0750354,0.129961 -0.0966142,0.142165 -0.392386,0.222299 -0.565496,0.153205 0.17311,0.0690945 0.390386,-0.146992 0.415425,-0.41313 -0.0250394,0.266138 0.0142126,0.334118 0.0750354,0.129965z"/>
    <path id="_311373408" class="fil0" d="M1.46866 3.85865c-0.111591,0.181457 -0.0912756,0.257272 0.0388425,0.144953 -0.130118,0.112319 -0.436551,0.113169 -0.585878,0.00162598 0.149327,0.111543 0.41513,-0.0409449 0.508197,-0.291535 -0.0930669,0.250591 -0.072752,0.326413 0.0388386,0.144957z"/>
    <path id="_311373648" class="fil0" d="M1.41967 3.34015c-0.154752,0.14639 -0.154752,0.224878 0,0.150067 -0.154752,0.074811 -0.450965,-0.00367717 -0.566335,-0.150067 0.11537,0.14639 0.411583,0.0678937 0.566335,-0.150071 -0.154752,0.217965 -0.154752,0.296461 0,0.150071z"/>
    <path id="_311373288" class="fil0" d="M1.50654 2.82665c-0.18737,0.10135 -0.207685,0.177165 -0.0388425,0.144957 -0.168843,0.0322087 -0.434646,-0.120268 -0.508193,-0.291531 0.0735472,0.171264 0.379984,0.172102 0.585878,0.00162205 -0.205894,0.17048 -0.226213,0.246303 -0.0388425,0.144953z"/>
    <path id="_311372928" class="fil0" d="M1.72336 2.35312c-0.207217,0.0494055 -0.246461,0.117378 -0.0750354,0.129965 -0.171425,-0.0125866 -0.388709,-0.228665 -0.415425,-0.41313 0.0267165,0.184465 0.322492,0.264587 0.565496,0.153205 -0.243004,0.111382 -0.282252,0.179366 -0.0750354,0.129961z"/>
    <path id="_311372760" class="fil0" d="M2.05534 1.95185c-0.212941,-0.00590945 -0.268441,0.0495866 -0.106114,0.106114 -0.162327,-0.0565276 -0.31628,-0.32148 -0.294343,-0.506571 -0.021937,0.185091 0.243024,0.339039 0.506575,0.294343 -0.263551,0.0446969 -0.319059,0.100205 -0.106118,0.106114z"/>
    <path id="_311372328" class="fil0" d="M2.47988 1.65018c-0.204157,-0.0608228 -0.27213,-0.0215787 -0.129965,0.0750354 -0.142165,-0.0966142 -0.222299,-0.392386 -0.153205,-0.565496 -0.0690945,0.17311 0.146992,0.390386 0.41313,0.415425 -0.266138,-0.0250394 -0.334118,0.0142126 -0.129961,0.0750354z"/>
    <path id="_311372880" class="fil0" d="M2.96802 1.46866c-0.181461,-0.111591 -0.257272,-0.0912756 -0.144957,0.0388425 -0.112315,-0.130118 -0.113169,-0.436551 -0.00162205,-0.585878 -0.111547,0.149327 0.0409449,0.41513 0.291531,0.508197 -0.250587,-0.0930669 -0.326413,-0.072752 -0.144953,0.0388386z"/>
   </g>
   <g>
    <path id="_311372808" class="fil1" d="M3.48652 1.41967c-0.0268583,-0.0283976 -0.0514173,-0.0515669 -0.073185,-0.0695354l0 -0.0274685c0.00599606,0.0186378 0.0296535,0.0509882 0.073185,0.0970039zm-0.073185 -0.486539c0.0217677,-0.0313504 0.0463268,-0.0586339 0.073185,-0.0797992 -0.0435315,0.034311 -0.0671811,0.0846102 -0.073185,0.142429l0 -0.0626299zm0 0.124555c0.0118189,0.125146 0.0923858,0.269059 0.223252,0.361984 -0.130874,-0.0929252 -0.211433,-0.130016 -0.223252,-0.11135l0 -0.250634z"/>
    <path id="_311372160" class="fil1" d="M3.41333 5.53585c0.565102,0 1.10134,-0.222114 1.50086,-0.621646 0.399528,-0.39952 0.621646,-0.935768 0.621646,-1.50087 0,-0.565098 -0.222118,-1.10135 -0.621646,-1.50087 -0.399524,-0.399531 -0.93576,-0.621657 -1.50086,-0.621657l0 4.24504z"/>
    <path id="_311372040" class="fil1" d="M4.00002 1.50654c-0.101354,-0.18737 -0.177165,-0.207685 -0.144957,-0.0388465 -0.0322087,-0.168839 0.120268,-0.434646 0.291531,-0.508189 -0.171264,0.0735433 -0.172106,0.379988 -0.00162205,0.585878 -0.170484,-0.20589 -0.246307,-0.226213 -0.144953,-0.0388425z"/>
    <path id="_311371800" class="fil1" d="M4.47354 1.72335c-0.0493976,-0.207213 -0.11737,-0.246461 -0.129961,-0.0750315 0.0125906,-0.171429 0.228669,-0.388709 0.413134,-0.415421 -0.184465,0.0267126 -0.264591,0.322488 -0.153209,0.565492 -0.111382,-0.243004 -0.179362,-0.282252 -0.129965,-0.0750394z"/>
    <path id="_311372016" class="fil1" d="M4.87481 2.05534c0.00590945,-0.212941 -0.0495906,-0.268441 -0.10611,-0.10611 0.0565197,-0.162331 0.321476,-0.316287 0.506571,-0.294346 -0.185094,-0.0219409 -0.339043,0.243024 -0.294343,0.506575 -0.0447008,-0.263551 -0.100209,-0.319059 -0.106118,-0.106118z"/>
    <path id="_311370768" class="fil1" d="M5.17649 2.47988c0.0608228,-0.204154 0.0215748,-0.272126 -0.0750354,-0.129965 0.0966102,-0.142161 0.392386,-0.222295 0.565496,-0.153209 -0.17311,-0.0690866 -0.39039,0.146996 -0.415429,0.413138 0.0250394,-0.266142 -0.0142087,-0.334118 -0.0750315,-0.129965z"/>
    <path id="_311371200" class="fil1" d="M5.35801 2.96802c0.111591,-0.181461 0.0912756,-0.257272 -0.0388425,-0.144953 0.130118,-0.112319 0.436551,-0.113169 0.585878,-0.00162205 -0.149327,-0.111547 -0.41513,0.0409449 -0.508201,0.291528 0.0930709,-0.250583 0.0727559,-0.326413 -0.0388346,-0.144953z"/>
    <path id="_311370864" class="fil1" d="M5.407 3.48651c0.154752,-0.14639 0.154752,-0.224882 0,-0.150063 0.154752,-0.0748189 0.450965,0.00367323 0.566335,0.150063 -0.11537,-0.14639 -0.411583,-0.0678937 -0.566335,0.150071 0.154752,-0.217965 0.154752,-0.296461 0,-0.150071z"/>
    <path id="_311371296" class="fil1" d="M5.32013 4.00002c0.18737,-0.10135 0.207685,-0.177165 0.0388425,-0.144953 0.168843,-0.0322126 0.434646,0.120268 0.508193,0.291531 -0.0735472,-0.171264 -0.379988,-0.172106 -0.585878,-0.00162598 0.20589,-0.17048 0.226213,-0.246303 0.0388425,-0.144953z"/>
    <path id="_311371056" class="fil1" d="M5.10331 4.47354c0.207213,-0.0494016 0.246457,-0.117378 0.0750315,-0.129965 0.171425,0.0125866 0.388709,0.228669 0.415421,0.41313 -0.0267126,-0.184461 -0.322488,-0.264587 -0.565496,-0.153201 0.243008,-0.111386 0.282256,-0.179366 0.0750433,-0.129965z"/>
    <path id="_311370000" class="fil1" d="M4.77133 4.87482c0.212941,0.00590945 0.268441,-0.0495906 0.10611,-0.106122 0.162331,0.0565315 0.316283,0.321484 0.294346,0.506579 0.021937,-0.185094 -0.243024,-0.339039 -0.506579,-0.294346 0.263555,-0.0446929 0.319063,-0.100201 0.106122,-0.10611z"/>
    <path id="_311370432" class="fil1" d="M4.34679 5.17649c0.204154,0.0608268 0.272126,0.0215787 0.129961,-0.0750394 0.142165,0.0966181 0.222299,0.39239 0.153209,0.565492 0.0690906,-0.173102 -0.146996,-0.390382 -0.413134,-0.415421 0.266138,0.0250394 0.334118,-0.0142047 0.129965,-0.0750315z"/>
    <path id="_311370168" class="fil1" d="M3.85865 5.358c0.181461,0.111591 0.257276,0.0912835 0.144953,-0.0388346 0.112323,0.130118 0.113173,0.436543 0.00162598,0.585878 0.111547,-0.149335 -0.0409488,-0.41513 -0.291531,-0.508201 0.250583,0.0930709 0.326413,0.072748 0.144953,-0.0388425z"/>
    <path id="_311370048" class="fil1" d="M3.41333 5.47653c0.0968425,0.0799961 0.13798,0.0568386 0.0768898,-0.0695276 0.0610906,0.126366 0.0199528,0.34702 -0.0768898,0.486547l0 -0.0626378c0.00206299,-0.0198701 0.00201181,-0.0406299 0,-0.0619252l0 -0.250634c0.00201181,-0.00317717 0.00206299,-0.00793701 0,-0.0143465l0 -0.0274764z"/>
   </g>
  </g>
 </g>
 <rect class="fil2" width="6.82666" height="6.82666"/>
</svg>
